<svg xmlns="http://www.w3.org/2000/svg" viewBox="0 0 187.54 189.16"><defs><style>.cls-1{fill:#e52521;opacity:0.34;}.cls-2{fill:#e61971;}.cls-3{fill:#f089ad;}</style></defs><g id="Layer_2" data-name="Layer 2"><g id="Layer_1-2" data-name="Layer 1"><path class="cls-1" d="M74.65,82.1a3.59,3.59,0,0,1,0-1.18A4.24,4.24,0,0,1,74.65,82.1Z"/><path class="cls-1" d="M74.65,82.1a3.59,3.59,0,0,1,0-1.18A4.24,4.24,0,0,1,74.65,82.1Z"/><path class="cls-2" d="M101.7,77.1A20,20,0,0,1,99.83,82L87.06,105.87,75.13,83.57a4.53,4.53,0,0,1-.48-1.47,4.24,4.24,0,0,0,0-1.18,4.4,4.4,0,0,0-4.36-3.82H31.91A4.4,4.4,0,0,0,28,83.53l19,36.28a4.4,4.4,0,0,0,7.78,0l7.49-14,12.42,23.2-6.33,11.81A20,20,0,0,1,33,140.7L2.3,81.86A20,20,0,0,1,20,52.65H82.23A20,20,0,0,1,101.7,77.1Z"/><path class="cls-3" d="M159.3,58.55,147,81.86l-1,2-.4.77-29.3,56.11a20,20,0,0,1-35.29.18l-6.32-11.81-12.42-23.2L49.46,82a20,20,0,0,1-1.87-4.93h22.7a4.4,4.4,0,0,1,4.36,3.82,3.59,3.59,0,0,0,0,1.18,4.53,4.53,0,0,0,.48,1.47l11.93,22.3,7.5,14a4.39,4.39,0,0,0,7.77,0l19-36.28a4.4,4.4,0,0,0-3.91-6.43H101.7A20,20,0,0,0,82.23,52.65h53.82l2.85-5.13a11.6,11.6,0,0,1,20.4,11Z"/><path class="cls-1" d="M74.65,82.1a3.59,3.59,0,0,1,0-1.18A4.24,4.24,0,0,1,74.65,82.1Z"/><path class="cls-1" d="M74.65,82.1a3.59,3.59,0,0,1,0-1.18A4.24,4.24,0,0,1,74.65,82.1Z"/><circle class="cls-2" cx="98.77" cy="175.6" r="13.56"/><circle class="cls-2" cx="50.68" cy="175.6" r="13.56"/><path class="cls-2" d="M153.08,9.42l4.37,7.1a1.64,1.64,0,0,1-.17,1.93l-5.36,6.25a3.19,3.19,0,0,0,3.18,5.18l8.07-1.95a1.62,1.62,0,0,1,1.75.72l4.3,7a3.2,3.2,0,0,0,5.92-1.42l.62-8.2A1.63,1.63,0,0,1,177,24.59l0,0,8.1-2a3.2,3.2,0,0,0,.47-6.06l-7.73-3.19a1.63,1.63,0,0,1-1-1.62l.67-8.28a3.2,3.2,0,0,0-5.62-2.33L166.5,7.48a1.6,1.6,0,0,1-1.85.45L157,4.79A3.2,3.2,0,0,0,153.08,9.42Z"/></g></g></svg>